<svg id="Layer_1" data-name="Layer 1" xmlns="http://www.w3.org/2000/svg" viewBox="0 0 445.91 197.14"><defs><style>.cls-1{fill:#edfcfa;}.cls-2{fill:#00d2d9;}.cls-3{fill:#a4f7f8;}.cls-4{isolation:isolate;}.cls-5,.cls-8{fill:#4a5053;}.cls-6{fill:#e0e0e0;}.cls-7{fill:#fff;}.cls-8{font-size:7px;font-family:OpenSans-Bold, Open Sans;font-weight:700;}</style></defs><g id="Arrow_7" data-name="Arrow 7"><g id="Rectangle_1237" data-name="Rectangle 1237"><rect class="cls-1" x="24.12" y="94.4" width="102.83" height="52.61"/><path class="cls-2" d="M137.84,153.54H35V100.93H137.84ZM35.6,153H137.24V101.53H35.6Z" transform="translate(-10.89 -6.53)"/></g><g id="Rectangle_1240" data-name="Rectangle 1240"><rect class="cls-1" x="314.15" y="117.83" width="94.1" height="48.24"/><path class="cls-2" d="M419.13,172.6H325V124.36h94.09Zm-93.5-.6h92.91V125H325.63Z" transform="translate(-10.89 -6.53)"/></g><g id="Group_1713" data-name="Group 1713"><g id="Group_1545" data-name="Group 1545"><g id="Group_206" data-name="Group 206"><g id="Ellipse_13" data-name="Ellipse 13"><ellipse class="cls-3" cx="354.91" cy="137.85" rx="2.45" ry="1.91"/></g><g id="Path_355" data-name="Path 355"><path class="cls-3" d="M367,146.07l4.58-1.69L367,142.69" transform="translate(-10.89 -6.53)"/></g><g id="Ellipse_14" data-name="Ellipse 14"><ellipse class="cls-3" cx="361.35" cy="144.07" rx="1.91" ry="2.45"/></g><g id="Path_356" data-name="Path 356"><path class="cls-3" d="M373.93,149.44l-1.69-4.58-1.69,4.58" transform="translate(-10.89 -6.53)"/></g><g id="Ellipse_15" data-name="Ellipse 15"><ellipse class="cls-3" cx="367.6" cy="137.85" rx="2.45" ry="1.91"/></g><g id="Path_357" data-name="Path 357"><path class="cls-3" d="M377.33,142.69l-4.59,1.69,4.59,1.69" transform="translate(-10.89 -6.53)"/></g><g id="Ellipse_16" data-name="Ellipse 16"><ellipse class="cls-3" cx="361.35" cy="131.39" rx="1.91" ry="2.45"/></g><g id="Path_358" data-name="Path 358"><path class="cls-3" d="M370.55,139.08l1.69,4.59,1.69-4.59" transform="translate(-10.89 -6.53)"/></g></g><g id="Group_207" data-name="Group 207"><g id="Ellipse_17" data-name="Ellipse 17"><ellipse class="cls-2" cx="369.27" cy="141.39" rx="1.24" ry="1.59" transform="translate(-2.71 296) rotate(-45)"/></g><g id="Path_359" data-name="Path 359"><path class="cls-2" d="M369,142.7l2.88,1.33-1.33-2.88" transform="translate(-10.89 -6.53)"/></g><g id="Ellipse_18" data-name="Ellipse 18"><ellipse class="cls-2" cx="369.37" cy="147.21" rx="1.59" ry="1.24" transform="translate(-6.79 297.77) rotate(-45)"/></g><g id="Path_360" data-name="Path 360"><path class="cls-2" d="M370.68,147.45l1.33-2.88-2.88,1.33" transform="translate(-10.89 -6.53)"/></g><g id="Ellipse_19" data-name="Ellipse 19"><ellipse class="cls-2" cx="375.1" cy="147.22" rx="1.24" ry="1.59" transform="translate(-5.12 301.82) rotate(-45)"/></g><g id="Path_361" data-name="Path 361"><path class="cls-2" d="M375.34,145.91l-2.88-1.33,1.33,2.88" transform="translate(-10.89 -6.53)"/></g><g id="Ellipse_20" data-name="Ellipse 20"><ellipse class="cls-2" cx="375.2" cy="141.38" rx="1.59" ry="1.24" transform="translate(-0.97 300.18) rotate(-45)"/></g><g id="Path_362" data-name="Path 362"><path class="cls-2" d="M373.89,141.14,372.56,144l2.88-1.33" transform="translate(-10.89 -6.53)"/></g></g><g id="Group_1544" data-name="Group 1544"><g id="Ellipse_13-2" data-name="Ellipse 13-2"><ellipse class="cls-3" cx="354.91" cy="137.85" rx="2.45" ry="1.91"/></g><g id="Path_355-2" data-name="Path 355-2"><path class="cls-3" d="M367,146.07l4.58-1.69L367,142.69" transform="translate(-10.89 -6.53)"/></g><g id="Ellipse_14-2" data-name="Ellipse 14-2"><ellipse class="cls-3" cx="361.35" cy="144.07" rx="1.91" ry="2.45"/></g><g id="Path_356-2" data-name="Path 356-2"><path class="cls-3" d="M373.93,149.44l-1.69-4.58-1.69,4.58" transform="translate(-10.89 -6.53)"/></g><g id="Ellipse_15-2" data-name="Ellipse 15-2"><ellipse class="cls-3" cx="367.6" cy="137.85" rx="2.45" ry="1.91"/></g><g id="Path_357-2" data-name="Path 357-2"><path class="cls-3" d="M377.33,142.69l-4.59,1.69,4.59,1.69" transform="translate(-10.89 -6.53)"/></g><g id="Ellipse_16-2" data-name="Ellipse 16-2"><ellipse class="cls-3" cx="361.35" cy="131.39" rx="1.91" ry="2.45"/></g><g id="Path_358-2" data-name="Path 358-2"><path class="cls-3" d="M370.55,139.08l1.69,4.59,1.69-4.59" transform="translate(-10.89 -6.53)"/></g></g></g><g id="Ensembles" class="cls-4"><g class="cls-4"><path class="cls-5" d="M356.61,160.1h-2.94V155h2.94v.88h-1.86V157h1.73v.89h-1.73v1.31h1.86Z" transform="translate(-10.89 -6.53)"/><path class="cls-5" d="M361.19,160.1h-1.07v-2.28a1.14,1.14,0,0,0-.15-.64.53.53,0,0,0-.47-.21.72.72,0,0,0-.65.3,1.88,1.88,0,0,0-.2,1v1.84h-1.06v-3.9h.81l.14.49h.06a1.18,1.18,0,0,1,.49-.42,1.64,1.64,0,0,1,.71-.15,1.36,1.36,0,0,1,1,.37,1.5,1.5,0,0,1,.35,1.06Z" transform="translate(-10.89 -6.53)"/><path class="cls-5" d="M365,158.94a1.06,1.06,0,0,1-.42.91,2.05,2.05,0,0,1-1.25.32,3.73,3.73,0,0,1-.72-.06,3.43,3.43,0,0,1-.57-.17v-.88a4,4,0,0,0,.67.23,2.46,2.46,0,0,0,.66.1c.38,0,.58-.11.58-.34a.28.28,0,0,0-.08-.2,1.23,1.23,0,0,0-.27-.18,5.12,5.12,0,0,0-.5-.23,3.18,3.18,0,0,1-.66-.35,1.08,1.08,0,0,1-.31-.37,1.29,1.29,0,0,1-.09-.51.91.91,0,0,1,.4-.8,2,2,0,0,1,1.14-.29,3.15,3.15,0,0,1,1.37.31l-.32.77a3.72,3.72,0,0,0-.54-.21,1.88,1.88,0,0,0-.52-.08c-.32,0-.48.09-.48.26a.31.31,0,0,0,.16.24,3.49,3.49,0,0,0,.66.31,3.06,3.06,0,0,1,.67.35,1.11,1.11,0,0,1,.32.37A1.27,1.27,0,0,1,365,158.94Z" transform="translate(-10.89 -6.53)"/><path class="cls-5" d="M367.6,160.17a2,2,0,0,1-1.47-.52,2,2,0,0,1-.53-1.48,2.13,2.13,0,0,1,.49-1.51,1.75,1.75,0,0,1,1.36-.54,1.71,1.71,0,0,1,1.28.47,1.78,1.78,0,0,1,.46,1.3v.52h-2.51a1,1,0,0,0,.27.71.92.92,0,0,0,.7.25,2.87,2.87,0,0,0,.67-.07,3.62,3.62,0,0,0,.65-.23v.82a2.75,2.75,0,0,1-.59.21A4.16,4.16,0,0,1,367.6,160.17Zm-.15-3.29a.69.69,0,0,0-.53.21,1,1,0,0,0-.22.61h1.5a1,1,0,0,0-.21-.61A.7.7,0,0,0,367.45,156.88Z" transform="translate(-10.89 -6.53)"/><path class="cls-5" d="M373.55,160.1h-1.06v-2.28a1.24,1.24,0,0,0-.14-.64.52.52,0,0,0-.45-.21.64.64,0,0,0-.59.3,2,2,0,0,0-.19,1v1.84h-1.06v-3.9h.81l.15.49h.05a1.25,1.25,0,0,1,.46-.42,1.48,1.48,0,0,1,.68-.15,1.24,1.24,0,0,1,1.19.57h.09a1,1,0,0,1,.46-.42,1.58,1.58,0,0,1,.69-.15,1.37,1.37,0,0,1,1,.34,1.48,1.48,0,0,1,.34,1.09v2.55h-1.06v-2.28a1.24,1.24,0,0,0-.14-.64.52.52,0,0,0-.45-.21.67.67,0,0,0-.58.28,1.58,1.58,0,0,0-.2.89Z" transform="translate(-10.89 -6.53)"/><path class="cls-5" d="M379.25,156.12a1.26,1.26,0,0,1,1.08.54,3,3,0,0,1,0,3,1.32,1.32,0,0,1-1.1.53,1.3,1.3,0,0,1-1.08-.5h-.07l-.18.43h-.81v-5.43h1.06v1.26c0,.16,0,.42,0,.77h0A1.25,1.25,0,0,1,379.25,156.12Zm-.34.85a.65.65,0,0,0-.58.25,1.42,1.42,0,0,0-.19.8v.11a1.58,1.58,0,0,0,.19.9.66.66,0,0,0,.59.27.59.59,0,0,0,.52-.3,1.61,1.61,0,0,0,.19-.87,1.56,1.56,0,0,0-.19-.87A.62.62,0,0,0,378.91,157Z" transform="translate(-10.89 -6.53)"/><path class="cls-5" d="M382.66,160.1H381.6v-5.43h1.06Z" transform="translate(-10.89 -6.53)"/><path class="cls-5" d="M385.55,160.17a2.07,2.07,0,0,1-1.48-.52,2,2,0,0,1-.53-1.48,2.18,2.18,0,0,1,.49-1.51,2,2,0,0,1,2.65-.07,1.82,1.82,0,0,1,.46,1.3v.52h-2.52a1,1,0,0,0,.27.71.94.94,0,0,0,.7.25,2.87,2.87,0,0,0,.67-.07,4,4,0,0,0,.66-.23v.82a3,3,0,0,1-.6.21A4.13,4.13,0,0,1,385.55,160.17Zm-.15-3.29a.66.66,0,0,0-.53.21,1,1,0,0,0-.22.61h1.49a.9.9,0,0,0-.21-.61A.69.69,0,0,0,385.4,156.88Z" transform="translate(-10.89 -6.53)"/><path class="cls-5" d="M390.72,158.94a1.06,1.06,0,0,1-.41.91,2.07,2.07,0,0,1-1.25.32,3.84,3.84,0,0,1-.73-.06,3.31,3.31,0,0,1-.56-.17v-.88a3.75,3.75,0,0,0,.67.23,2.45,2.45,0,0,0,.65.1c.39,0,.58-.11.58-.34a.27.27,0,0,0-.07-.2,1.23,1.23,0,0,0-.27-.18,5.12,5.12,0,0,0-.5-.23,3.18,3.18,0,0,1-.66-.35,1.08,1.08,0,0,1-.31-.37,1.29,1.29,0,0,1-.09-.51.91.91,0,0,1,.4-.8,2,2,0,0,1,1.14-.29,3.15,3.15,0,0,1,1.37.31l-.32.77a3.82,3.82,0,0,0-.55-.21,1.82,1.82,0,0,0-.52-.08c-.31,0-.47.09-.47.26a.3.3,0,0,0,.15.24,4.08,4.08,0,0,0,.67.31,3.31,3.31,0,0,1,.67.35,1,1,0,0,1,.31.37A1.12,1.12,0,0,1,390.72,158.94Z" transform="translate(-10.89 -6.53)"/></g></g></g><g id="Path_1479" data-name="Path 1479"><path class="cls-3" d="M162.45,114.67h69L203.54,86.79h33.77l39.83,39.83-39.83,39.82H203.54l27.87-27.88h-69Z" transform="translate(-10.89 -6.53)"/></g><g id="Rectangle_1234" data-name="Rectangle 1234"><rect class="cls-1" x="58.48" y="19.56" width="26.7" height="20.2"/><path class="cls-2" d="M96.06,46.29H69.36V26.09h26.7Zm-26-.72H95.34V26.81H70.08Z" transform="translate(-10.89 -6.53)"/></g><g id="Rectangle_1235" data-name="Rectangle 1235"><rect class="cls-1" x="68.89" y="9.86" width="26.7" height="20.44"/><path class="cls-2" d="M106.48,36.84H79.78V16.39h26.7Zm-26-.73h25.26v-19H80.5Z" transform="translate(-10.89 -6.53)"/></g><g id="Rectangle_1236" data-name="Rectangle 1236"><rect class="cls-1" x="79.72" width="26.7" height="20.2"/><path class="cls-2" d="M117.3,26.73H90.6V6.53h26.7Zm-26-.72h25.25V7.25H91.33Z" transform="translate(-10.89 -6.53)"/></g><g id="Group_1710" data-name="Group 1710"><g id="Rectangle_1193" data-name="Rectangle 1193"><path class="cls-6" d="M26.81,169.44a4.14,4.14,0,0,1-4.13-4.13V78a4.14,4.14,0,0,1,4.13-4.13H147.49A4.13,4.13,0,0,1,151.62,78v87.34a4.13,4.13,0,0,1-4.13,4.13Zm118.8-6V79.85H28.7v83.58Z" transform="translate(-10.89 -6.53)"/><path class="cls-6" d="M147.49,168H26.82a2.71,2.71,0,0,1-2.72-2.71V78a2.71,2.71,0,0,1,2.72-2.71H147.49A2.71,2.71,0,0,1,150.2,78v87.34A2.71,2.71,0,0,1,147.49,168ZM27.28,164.85H147V78.43H27.28Z" transform="translate(-10.89 -6.53)"/></g><g id="Line_5" data-name="Line 5"><rect class="cls-6" x="13.39" y="79.72" width="125.76" height="6.01"/><rect class="cls-6" x="14.8" y="81.14" width="122.93" height="3.18"/></g></g><g id="Group_132" data-name="Group 132"><g id="Path_1219" data-name="Path 1219"><path class="cls-6" d="M456.67,144.06a37,37,0,0,0-40-33.74,37.94,37.94,0,0,0-5.4.86,37.11,37.11,0,0,0-28.59-34.09l-.77-.16a25.44,25.44,0,0,0-46.3,6.91,22.69,22.69,0,0,0-32,20.68,23.29,23.29,0,0,0,.2,3,19.81,19.81,0,0,0-10.91,34.14c-.34.39-.69.78-1,1.19a25.18,25.18,0,0,0-5.3,15.53,25.54,25.54,0,0,0,25.52,25.52H419.86c1.05,0,2.07,0,3.06-.12A36.86,36.86,0,0,0,456.67,144.06ZM295.84,117.8a14.17,14.17,0,0,1,10.6-4.77h.22a1.31,1.31,0,0,1,.28,0,2.82,2.82,0,0,0,3-3.63,17.54,17.54,0,0,1-.69-4.88,17,17,0,0,1,17-17,16.61,16.61,0,0,1,9.8,3.12,2.85,2.85,0,0,0,4-.66,3,3,0,0,0,.52-1.4,19.94,19.94,0,0,1,20.94-18.06,19.64,19.64,0,0,1,12.7,5.65c-.18,0-.36,0-.54,0h-.11a37.14,37.14,0,0,0-3.94.32l-.15,0c-1.28.18-2.55.42-3.8.72l-.21.06a34.17,34.17,0,0,0-3.57,1.09l-.33.12a34.58,34.58,0,0,0-3.25,1.4l-.49.23c-1,.5-1.94,1-2.87,1.63-.21.14-.43.26-.64.39A30.75,30.75,0,0,0,351.76,84c-.22.17-.46.33-.68.51a39,39,0,0,0-2.93,2.67,35.09,35.09,0,0,0-5.92,8v0l0,0a2.32,2.32,0,0,0-.22.41,35,35,0,0,0-2.88,7,37.22,37.22,0,0,0-1.26,6.44,30.72,30.72,0,0,0-.22,4v.56a28.67,28.67,0,0,0-17.92,2.22,31.64,31.64,0,0,0-3.53,2,16.1,16.1,0,0,0-1.92,1.45,25.93,25.93,0,0,0-3,2.74,25.65,25.65,0,0,0-2.52,3.08,28.22,28.22,0,0,0-4.17,8.9,22.5,22.5,0,0,0-3.61,1.45,27.69,27.69,0,0,0-3.54,2.13c-.12.08-.26.14-.37.23A14.19,14.19,0,0,1,295.84,117.8Zm126.59,60.34c-.85.08-1.7.1-2.57.1H312.11a19.87,19.87,0,0,1-19.85-19.85,19.64,19.64,0,0,1,4.13-12.1,18.36,18.36,0,0,1,2.6-2.76,20,20,0,0,1,4.51-3,18.65,18.65,0,0,1,4.11-1.47,2.83,2.83,0,0,0,2.11-2.19,22.61,22.61,0,0,1,3.65-8.49,20.19,20.19,0,0,1,2-2.44,22.51,22.51,0,0,1,2.55-2.33,13.43,13.43,0,0,1,1.42-1.06,23.33,23.33,0,0,1,2.83-1.63,22.31,22.31,0,0,1,2.21-.91c.54-.19,1.09-.34,1.65-.49.19,0,.37-.12.57-.16.6-.15,1.2-.25,1.8-.35l.51-.09c.54-.07,1.09-.11,1.63-.15.28,0,.54,0,.82,0,.53,0,1.06,0,1.59,0a3.62,3.62,0,0,1,.57,0c.52,0,1.05.1,1.56.17l.59.07c.54.09,1.06.21,1.59.34l.49.11c.67.18,1.34.4,2,.64a2.82,2.82,0,0,0,3.66-1.63,2.89,2.89,0,0,0,.17-1.4,28.47,28.47,0,0,1-.26-4,26.07,26.07,0,0,1,.18-3.3,31,31,0,0,1,1.07-5.49,28.91,28.91,0,0,1,2.51-6.06.37.37,0,0,0,.05-.11l.1-.18a29.15,29.15,0,0,1,5-6.7,31.06,31.06,0,0,1,22.31-9.36c.94,0,1.88.06,2.8.13s1.6.18,2.38.33l.17,0c.53.07,1.07.16,1.59.28A31.4,31.4,0,0,1,405.68,113c0,.61,0,1.22-.06,1.83a2.85,2.85,0,0,0,2.72,3,3.05,3.05,0,0,0,1.08-.17,30.68,30.68,0,0,1,10.44-1.79,31.19,31.19,0,0,1,2.57,62.28Z" transform="translate(-10.89 -6.53)"/></g></g><g id="Rectangle_1238" data-name="Rectangle 1238"><path class="cls-6" d="M16.36,172.4H157a5.24,5.24,0,0,1,5.48,5V179a5.24,5.24,0,0,1-5.48,5H16.36a5.23,5.23,0,0,1-5.47-5v-1.59A5.23,5.23,0,0,1,16.36,172.4Z" transform="translate(-10.89 -6.53)"/></g><g id="Rectangle_1239" data-name="Rectangle 1239"><rect class="cls-7" x="53.18" y="166.71" width="45.86" height="3.97" rx="1.79"/></g><g id="Arrow_7-2" data-name="Arrow 7"><g id="Path_1478" data-name="Path 1478"><path class="cls-2" d="M92.77,107.16l-5.25,15.63L82.3,107.16h3.12V64.63h3.77v42.53Z" transform="translate(-10.89 -6.53)"/></g></g><g id="Group_1547" data-name="Group 1547"><g id="Path_1145" data-name="Path 1145"><path class="cls-2" d="M129.45,132.66c-1,1.14-2.49,2-3.84,1.47A1,1,0,0,1,125,133a16,16,0,0,1,.29-2l1.63-8.57h-3.1l-1.35,7.63a4.05,4.05,0,0,1-1.26,2.28,3.54,3.54,0,0,1-2.49.94c-1.22,0-1.79-.57-1.79-1.63a4.63,4.63,0,0,1,.12-.9l1.59-8.36h-3.14L114,131a5.65,5.65,0,0,0-.17,1.3,3.56,3.56,0,0,0,.94,2.69,3.75,3.75,0,0,0,2.69.94,6.79,6.79,0,0,0,4.17-1.22s.16,1.71,3.1,2a13.7,13.7,0,0,0,3.26-.12,7.56,7.56,0,0,0,2.69-1.15,8.37,8.37,0,0,0,3.43-7.59,13.18,13.18,0,0,0-8.89-11.58,11.47,11.47,0,0,0-4.25-.78h-.08a13.22,13.22,0,0,0,0,26.44H121a13.44,13.44,0,0,0,7.39-2.2,13.25,13.25,0,0,0,3.43-3.51,10.29,10.29,0,0,1-5.84,1.92,9.87,9.87,0,0,1-1.43-.13,11.51,11.51,0,0,1-3.59.61h-.08a9.91,9.91,0,0,1,0-19.82h.08a9.82,9.82,0,0,1,9.1,6.08,9,9,0,0,1,.53,5.83A5,5,0,0,1,129.45,132.66Z" transform="translate(-10.89 -6.53)"/><path class="cls-2" d="M121,142h-.1a13.32,13.32,0,0,1-.06-26.64h.1a11.59,11.59,0,0,1,4.28.78,13.06,13.06,0,0,1,6.21,4.44,13.23,13.23,0,0,1,2.75,7.24,8.46,8.46,0,0,1-3.47,7.68,7.57,7.57,0,0,1-2.73,1.15,13.44,13.44,0,0,1-3.29.13c-2.49-.28-3-1.52-3.16-2a7,7,0,0,1-4.1,1.15,3.91,3.91,0,0,1-2.76-1,3.67,3.67,0,0,1-1-2.77,6,6,0,0,1,.17-1.33l1.61-8.6h3.34l-1.61,8.48a5.34,5.34,0,0,0-.13.88c0,1,.56,1.53,1.7,1.53a3.43,3.43,0,0,0,2.42-.91,4.08,4.08,0,0,0,1.24-2.23l1.36-7.71h3.3l-1.65,8.69a15.93,15.93,0,0,0-.29,1.94.93.93,0,0,0,.51,1c1.67.65,3.27-.94,3.73-1.45h0a5,5,0,0,0,1.08-1.92,9,9,0,0,0-.53-5.77,9.73,9.73,0,0,0-9-6h-.08a9.86,9.86,0,0,0-7,2.88,9.87,9.87,0,0,0,7,16.75h.08a11.62,11.62,0,0,0,3.56-.61h0a8.4,8.4,0,0,0,1.41.13,10.19,10.19,0,0,0,5.78-1.9l.14.13a13.29,13.29,0,0,1-3.46,3.54A13.48,13.48,0,0,1,121,142Zm-.1-.2h.1a13.25,13.25,0,0,0,7.31-2.19,12.51,12.51,0,0,0,3.08-3,10.24,10.24,0,0,1-5.43,1.62,8.51,8.51,0,0,1-1.42-.12,11.57,11.57,0,0,1-3.6.61h-.08a10.06,10.06,0,0,1-7.12-17.08,10,10,0,0,1,7.12-2.94h.08a9.94,9.94,0,0,1,9.19,6.14,9.24,9.24,0,0,1,.54,5.9,5.06,5.06,0,0,1-1.13,2c-1.26,1.42-2.73,2-3.94,1.5a1.1,1.1,0,0,1-.64-1.24,18.33,18.33,0,0,1,.29-2l1.61-8.45h-2.9l-1.33,7.55a4.23,4.23,0,0,1-1.29,2.34,3.66,3.66,0,0,1-2.56,1c-1.26,0-1.89-.58-1.89-1.73a4.73,4.73,0,0,1,.12-.92l1.57-8.24h-2.94L114,131a6.32,6.32,0,0,0-.16,1.29,3.45,3.45,0,0,0,.91,2.62,3.67,3.67,0,0,0,2.62.91,6.68,6.68,0,0,0,4.11-1.2l.14-.11v.18c0,.06.2,1.64,3,1.95a13.45,13.45,0,0,0,3.23-.12,7.46,7.46,0,0,0,2.66-1.13,8.25,8.25,0,0,0,3.38-7.5,12.91,12.91,0,0,0-2.71-7.12,12.77,12.77,0,0,0-6.12-4.38,11.46,11.46,0,0,0-4.21-.77h-.1a13.12,13.12,0,0,0,.06,26.24Z" transform="translate(-10.89 -6.53)"/></g><g id="Path_1146" data-name="Path 1146"><path class="cls-2" d="M144.91,134.94h-2.85l1.3-6.85a5.93,5.93,0,0,0,.16-1.39q0-1.47-1.71-1.47a3.57,3.57,0,0,0-2.65,1.23l-1.55,8.44h-2.73l1.67-8.81a2.84,2.84,0,0,0,0-.65,8.07,8.07,0,0,0-.33-2.08l2.7-.49.24,1.3a5.28,5.28,0,0,1,3.63-1.26c2.41,0,3.63,1.14,3.63,3.38a6.89,6.89,0,0,1-.16,1.43Z" transform="translate(-10.89 -6.53)"/><path class="cls-2" d="M145,135h-3.05l1.32-7a6.34,6.34,0,0,0,.17-1.37c0-.92-.53-1.37-1.62-1.37a3.51,3.51,0,0,0-2.56,1.17l-1.56,8.5h-2.93l1.69-8.93a2.64,2.64,0,0,0,0-.63,7.44,7.44,0,0,0-.32-2l0-.11,2.89-.53.24,1.24a5.33,5.33,0,0,1,3.56-1.18c2.48,0,3.73,1.17,3.73,3.48a7,7,0,0,1-.16,1.45Zm-2.81-.2h2.65l1.37-7.14a6,6,0,0,0,.16-1.41c0-2.18-1.19-3.28-3.53-3.28a5.14,5.14,0,0,0-3.56,1.24l-.14.11-.25-1.38-2.49.45a8.57,8.57,0,0,1,.3,2,3,3,0,0,1,0,.67L135,134.8h2.53l1.54-8.39,0,0a3.68,3.68,0,0,1,2.72-1.26c1.2,0,1.81.53,1.81,1.57a6,6,0,0,1-.16,1.41Z" transform="translate(-10.89 -6.53)"/></g><g id="Path_1147" data-name="Path 1147"><path class="cls-2" d="M156.25,121a4.52,4.52,0,0,0-1.51-.41c-1.06,0-1.79.86-2.16,2.57h2.7l-.29,2.21h-2.78l-1.75,10.28a4.58,4.58,0,0,1-1.55,2.77,4.37,4.37,0,0,1-2.94,1.1l-.57-1.79a2.91,2.91,0,0,0,2.16-2.16l1.84-10.16h-1.67l.36-2.21h1.64c.73-3.22,2.44-4.81,5.14-4.81a3.7,3.7,0,0,1,1.95.49Z" transform="translate(-10.89 -6.53)"/><path class="cls-2" d="M146,139.61h-.1l-.63-2,.11,0a2.82,2.82,0,0,0,2.09-2.09l1.81-10h-1.67l.4-2.41h1.64c.75-3.19,2.5-4.81,5.22-4.81a3.79,3.79,0,0,1,2,.5l.07,0-.62,2.3-.1,0a4.39,4.39,0,0,0-1.48-.4c-1,0-1.67.8-2,2.37h2.68l-.31,2.41H152.3l-1.74,10.19a4.76,4.76,0,0,1-1.59,2.84A4.49,4.49,0,0,1,146,139.61Zm-.47-1.82.51,1.62a4.28,4.28,0,0,0,2.8-1.07,4.54,4.54,0,0,0,1.52-2.72l1.77-10.36h2.77l.26-2h-2.7l0-.12c.37-1.76,1.13-2.65,2.25-2.65a4.21,4.21,0,0,1,1.45.38l.52-1.94a3.58,3.58,0,0,0-1.84-.44c-2.67,0-4.32,1.55-5.05,4.74v.07h-1.63l-.34,2h1.68l-1.86,10.27A3,3,0,0,1,145.53,137.79Z" transform="translate(-10.89 -6.53)"/></g><g id="Path_1148" data-name="Path 1148"><path class="cls-2" d="M164.94,134.94h-2.73l.16-.85a6.22,6.22,0,0,1-3.67,1.06,3.21,3.21,0,0,1-2.37-.86,3.28,3.28,0,0,1-.85-2.41,7.35,7.35,0,0,1,.12-1.14l1.43-7.55h2.77l-1.38,7.47a7.34,7.34,0,0,0-.09.82c0,.93.54,1.42,1.6,1.42a3.11,3.11,0,0,0,2.2-.85,4,4,0,0,0,1.1-2l1.22-6.78h2.74Z" transform="translate(-10.89 -6.53)"/><path class="cls-2" d="M158.7,135.25a3.27,3.27,0,0,1-2.44-.89,3.4,3.4,0,0,1-.88-2.48,7.48,7.48,0,0,1,.12-1.16l1.45-7.63h3l-1.41,7.59a7,7,0,0,0-.08.8c0,.89.49,1.32,1.5,1.32a3,3,0,0,0,2.13-.82,3.89,3.89,0,0,0,1.07-2l1.24-6.85h2.94L165,135h-2.94l.14-.74A6.37,6.37,0,0,1,158.7,135.25Zm-1.59-12-1.41,7.47a5.35,5.35,0,0,0-.12,1.13,3.19,3.19,0,0,0,.82,2.33,3.08,3.08,0,0,0,2.3.83,6.16,6.16,0,0,0,3.62-1l.2-.15-.19,1h2.53l2.21-11.51h-2.53l-1.21,6.7a4.21,4.21,0,0,1-1.13,2.09,3.22,3.22,0,0,1-2.28.88c-1.1,0-1.68-.53-1.68-1.52a6,6,0,0,1,.08-.84l1.36-7.35Z" transform="translate(-10.89 -6.53)"/></g><g id="Path_1149" data-name="Path 1149"><path class="cls-2" d="M176,126a3,3,0,0,0-1.71-.74,2.78,2.78,0,0,0-2,.94,3.7,3.7,0,0,0-1.1,2.12L170,134.94h-2.73l2.2-11.75h2.74l-.21,1a4.91,4.91,0,0,1,3.22-1.22,15,15,0,0,1,1.64.2Z" transform="translate(-10.89 -6.53)"/><path class="cls-2" d="M170.08,135h-2.93l2.24-11.95h2.94l-.18.87a5,5,0,0,1,3.07-1.07,14.87,14.87,0,0,1,1.65.21l.11,0-.93,3-.11-.08a2.92,2.92,0,0,0-1.65-.72,2.7,2.7,0,0,0-1.89.91,3.6,3.6,0,0,0-1.08,2.07Zm-2.69-.2h2.53l1.21-6.57a3.76,3.76,0,0,1,1.13-2.17,2.88,2.88,0,0,1,2-1,3.05,3.05,0,0,1,1.66.67l.78-2.53a13,13,0,0,0-1.51-.18,4.76,4.76,0,0,0-3.15,1.2l-.22.19.23-1.19h-2.53Z" transform="translate(-10.89 -6.53)"/></g><g id="Path_1150" data-name="Path 1150"><path class="cls-2" d="M180.94,134a2.14,2.14,0,0,1-2,1,1.88,1.88,0,0,1-1.55-.65,2.48,2.48,0,0,1-.57-1.67,18.84,18.84,0,0,1,.53-3.84l2.2-10.48h2.73l-2.24,10.93a18.2,18.2,0,0,0-.49,3.35,1.26,1.26,0,0,0,1.17,1.34Z" transform="translate(-10.89 -6.53)"/><path class="cls-2" d="M179.09,135.13H179a2,2,0,0,1-1.62-.69,2.58,2.58,0,0,1-.59-1.73,19.38,19.38,0,0,1,.53-3.86l2.22-10.56h2.94l-2.27,11.05a18.28,18.28,0,0,0-.49,3.33,1.18,1.18,0,0,0,1.08,1.25h.17v.1l.08.05A2.3,2.3,0,0,1,179.09,135.13Zm.58-16.65-2.19,10.4a19,19,0,0,0-.52,3.82,2.4,2.4,0,0,0,.54,1.61,1.82,1.82,0,0,0,1.48.62,2.1,2.1,0,0,0,1.77-.83,1.35,1.35,0,0,1-.93-.46,1.39,1.39,0,0,1-.33-1,18.62,18.62,0,0,1,.49-3.36l2.22-10.81Z" transform="translate(-10.89 -6.53)"/></g></g><text class="cls-8" transform="translate(7.24 191.47)">ISOLATED DEPLOYMENT ENVIRONMENT</text><text class="cls-8" transform="translate(30.46 52.03)">REPRODUCIBLE ARTIFACTS</text><text class="cls-8" transform="translate(303.03 191.47)">ISOLATED CLOUD ENVIRONMENT</text><text class="cls-8" transform="translate(183.61 169.28)">DETERMINISTIC <tspan x="-13.42" y="8.4">DEPLOYMENT PROCESS</tspan></text></g></svg>