<?xml version="1.0" encoding="utf-8"?>
<!-- Generator: Adobe Illustrator 24.3.0, SVG Export Plug-In . SVG Version: 6.00 Build 0)  -->
<svg version="1.1" id="Layer_1" xmlns="http://www.w3.org/2000/svg" xmlns:xlink="http://www.w3.org/1999/xlink" x="0px" y="0px"
	 viewBox="0 0 189.7 71.2" style="enable-background:new 0 0 189.7 71.2;" xml:space="preserve">
<style type="text/css">
	.st0{fill:#00D2D9;}
</style>
<g>
	<path class="st0" d="M57.1,44.9c-2.5,2.8-6.1,4.9-9.4,3.6c-1.2-0.5-1.5-1.6-1.4-2.8c0.1-1.6,0.4-3.2,0.7-4.8l4-21h-7.6l-3.3,18.7
		c-0.5,2.2-1.4,4.1-3.1,5.6c-1.6,1.5-3.6,2.3-6.1,2.3c-3,0-4.4-1.4-4.4-4c0-0.5,0.1-1.3,0.3-2.2l3.9-20.6H23l-3.9,20.9
		c-0.2,1.4-0.3,2.4-0.3,3.3c0,2.8,0.7,5.1,2.3,6.6s3.8,2.3,6.6,2.3c4.2,0,7.5-1,10.2-3c0,0,0.4,4.2,7.6,5c2.1,0.2,4.7,0.2,8-0.3
		c2.5-0.5,4.6-1.5,6.6-2.8c6.1-4.1,8.9-11.5,8.4-18.6c-0.4-6.4-2.8-12.6-6.7-17.6c-3.8-5-9.1-8.8-15.1-10.8c-3.4-1.2-7-1.8-10.5-1.8
		H36c-8.6,0-16.8,3.5-22.9,9.6C7,18.7,3.7,26.8,3.7,35.4c0.1,17.8,14.6,32.3,32.4,32.3h0.2c6.5,0,12.8-1.9,18.1-5.4
		c3.9-2.6,6.5-5.9,8.4-8.6c-4.2,3-9.4,4.7-14.3,4.7c-1.2,0-2.3-0.1-3.5-0.3c-2.1,0.7-5.3,1.5-8.8,1.5H36
		c-13.5,0-24.1-10.6-24.2-24.2C11.9,21.8,22.5,11.1,36.1,11h0.2C46,11,55,16.9,58.6,25.9c1.8,4.4,2.7,9.7,1.3,14.3
		C59.4,41.7,58.4,43.4,57.1,44.9z"/>
	<path class="st0" d="M95.1,50.5h-7l3.1-16.8c0.3-1.3,0.4-2.5,0.4-3.4c0-2.4-1.4-3.6-4.2-3.6c-2.4,0-4.6,1-6.5,3l-3.8,20.7h-6.7
		l4-21.4c0.1-0.4,0.1-0.9,0.1-1.6c0-1.6-0.3-3.3-0.8-5.1l6.6-1.2l0.6,3.2c2.4-2.1,5.3-3.1,8.9-3.1c5.9,0,8.9,2.8,8.9,8.3
		c0,1-0.1,2.1-0.4,3.5L95.1,50.5z"/>
	<path class="st0" d="M122.9,16.4c-1.5-0.6-2.7-1-3.7-1c-2.6,0-4.4,2.1-5.3,6.3h6.6l-0.7,5.4H113l-4.3,25.2c-0.5,2.7-1.7,5-3.8,6.8
		c-2.1,1.8-4.5,2.7-7.2,2.7l-1.4-4.5c1.3-0.3,2.4-0.9,3.4-1.9s1.6-2.1,1.9-3.4l4.5-24.9H102l0.9-5.4h4c1.8-7.9,6-11.8,12.6-11.8
		c1.9,0,3.5,0.4,4.8,1.2L122.9,16.4z"/>
	<path class="st0" d="M144.1,50.6h-6.7l0.4-2.1c-2.4,1.7-5.4,2.6-9,2.6c-2.5,0-4.4-0.7-5.8-2.1c-1.4-1.4-2.1-3.4-2.1-5.9
		c0-0.8,0.1-1.7,0.3-2.8l3.5-18.5h6.8L128,40c-0.1,0.8-0.2,1.4-0.2,2c0,2.3,1.3,3.5,3.9,3.5c2.1,0,3.9-0.7,5.4-2.1
		c1.4-1.4,2.3-3.1,2.7-5l3-16.6h6.7L144.1,50.6z"/>
	<path class="st0" d="M171.2,28.6c-1.6-1.2-3-1.8-4.2-1.8c-1.7,0-3.3,0.8-4.8,2.3s-2.4,3.2-2.7,5.2l-3,16.3h-6.7l5.4-28.8h6.7
		l-0.5,2.5c2.4-2,5-3,7.9-3c0.7,0,2.1,0.2,4,0.5L171.2,28.6z"/>
	<path class="st0" d="M183.3,48.3c-1.1,1.7-2.7,2.5-4.8,2.5c-1.6,0-2.9-0.5-3.8-1.6s-1.4-2.4-1.4-4.1c0-2.2,0.4-5.3,1.3-9.4L180,10
		h6.7l-5.5,26.8c-0.8,3.8-1.2,6.5-1.2,8.2c0,1,0.3,1.9,1,2.5C181.5,48,182.3,48.3,183.3,48.3z"/>
</g>
</svg>
