<?xml version="1.0" encoding="utf-8"?>
<!-- Generator: Adobe Illustrator 24.0.1, SVG Export Plug-In . SVG Version: 6.00 Build 0)  -->
<svg version="1.1" id="Layer_1" xmlns="http://www.w3.org/2000/svg" xmlns:xlink="http://www.w3.org/1999/xlink" x="0px" y="0px"
	 viewBox="0 0 745 264" style="enable-background:new 0 0 745 264;" xml:space="preserve">
<style type="text/css">
	.st0{fill:#91DDFF;}
	.st1{fill:#FFFFFF;}
</style>
<path class="st0" d="M194.59,157.41c0.29,1.04,0.87,1.93,2.05,2.77c1.6,1.15,3.6,1.49,5.53,1.33c4.21-0.35,8.34-2.67,11.46-5.44
	c0.74-0.65,1.43-1.36,2.04-2.13c4.46-5.67,6.24-12.98,7.2-20.12c2.83-21.19-1.37-44.41-16.13-59.88
	c-9.61-10.08-22.89-16.06-36.49-19.08c-26.16-5.8-55.52-0.52-75.35,17.5c-16.29,14.8-24.9,36.95-25.68,58.95
	c-0.74,21.03,5.65,42.78,19.97,58.19c10.92,11.75,25.88,19.31,41.52,22.87c30.84,7.03,64.83-1.64,88.53-22.59
	c6.07,6.74,12.13,13.48,18.2,20.21c-21.88,21.82-53.73,31.43-84.62,31.82c-24.1,0.3-48.76-4.78-68.99-17.89
	c-23.58-15.28-39.72-41.03-44.79-68.67c-6.51-35.5,5.57-74.09,31.83-98.85c28.2-26.59,70.62-35.71,108.32-26.73
	c19.93,4.75,39.09,14.48,52.59,29.89c15.35,17.52,22.39,41.43,21.64,64.71c-0.48,15.15-4.27,30.57-13.23,42.79
	c-10.95,14.95-29.52,24-48.04,23.42c-6.67-0.21-13.47-1.66-19-5.38c-5.54-3.72-9.62-9.98-9.58-16.65
	c-6.76,8.88-17.1,15.2-28.22,16.16s-22.8-3.82-29.3-12.9c-4.27-5.95-6.17-13.28-7.21-20.53c-3.19-22.24,0.99-44.93-0.87-67.32
	c10.82,0,21.65,0,32.47,0c-0.03,16.98-0.05,33.96-0.08,50.94c-0.01,5.98,0.11,12.4,3.6,17.26c4.36,6.09,13.85,7.71,19.98,3.4
	c7.46-5.24,8.25-15.8,8.3-24.91c0.08-15.56,0.09-31.12,0.02-46.69c10.75,0,21.49,0,32.24,0c-0.02,0-0.1,48.1-0.11,52.47
	c-0.01,3.99-0.02,7.99-0.02,11.98c0,2.05-0.01,4.1-0.01,6.14C194.33,155.58,194.36,156.55,194.59,157.41z"/>
<g>
	<path class="st1" d="M335.85,185.94v-54.4c0-2.8-0.23-5.46-0.7-8c-0.47-2.53-1.23-4.77-2.3-6.7c-1.07-1.93-2.57-3.47-4.5-4.6
		c-1.93-1.13-4.37-1.7-7.3-1.7c-2.93,0-5.5,0.57-7.7,1.7c-2.2,1.13-4.03,2.7-5.5,4.7c-1.47,2-2.57,4.3-3.3,6.9
		c-0.73,2.6-1.1,5.3-1.1,8.1v54h-33v-99.6h31.8v13.8h0.4c1.2-2.13,2.77-4.23,4.7-6.3c1.93-2.07,4.2-3.83,6.8-5.3
		c2.6-1.46,5.43-2.67,8.5-3.6c3.07-0.93,6.33-1.4,9.8-1.4c6.67,0,12.33,1.2,17,3.6c4.67,2.4,8.43,5.5,11.3,9.3
		c2.87,3.8,4.93,8.17,6.2,13.1c1.27,4.93,1.9,9.87,1.9,14.8v61.6H335.85z"/>
	<path class="st1" d="M455.45,58.94c-1.2-0.4-2.6-0.73-4.2-1c-1.6-0.27-3.2-0.4-4.8-0.4c-3.07,0-5.53,0.54-7.4,1.6
		c-1.87,1.07-3.33,2.5-4.4,4.3c-1.07,1.8-1.8,3.83-2.2,6.1c-0.4,2.27-0.6,4.54-0.6,6.8v10h22.2v24.4h-22.2v75.2h-32.8v-75.2h-18.2
		v-24.4h18.2v-9.6c0-6.13,0.67-11.97,2-17.5c1.33-5.53,3.63-10.4,6.9-14.6c3.27-4.2,7.67-7.53,13.2-10c5.53-2.47,12.43-3.7,20.7-3.7
		c2.8,0,5.57,0.17,8.3,0.5c2.73,0.33,5.23,0.83,7.5,1.5L455.45,58.94z"/>
	<path class="st1" d="M532.05,185.94v-13.8h-0.4c-1.2,2.27-2.77,4.4-4.7,6.4c-1.93,2-4.2,3.73-6.8,5.2c-2.6,1.47-5.47,2.67-8.6,3.6
		c-3.13,0.93-6.43,1.4-9.9,1.4c-6.67,0-12.3-1.2-16.9-3.6c-4.6-2.4-8.33-5.5-11.2-9.3c-2.87-3.8-4.93-8.13-6.2-13
		c-1.27-4.87-1.9-9.83-1.9-14.9v-61.6h33v54c0,2.8,0.2,5.47,0.6,8c0.4,2.53,1.17,4.8,2.3,6.8c1.13,2,2.63,3.57,4.5,4.7
		c1.87,1.13,4.33,1.7,7.4,1.7c5.73,0,10.1-2.13,13.1-6.4c3-4.27,4.5-9.27,4.5-15v-53.8h32.8v99.6H532.05z"/>
	<path class="st1" d="M653.85,113.34c-1.47-0.4-2.9-0.67-4.3-0.8c-1.4-0.13-2.77-0.2-4.1-0.2c-4.4,0-8.1,0.8-11.1,2.39
		c-3,1.6-5.4,3.52-7.2,5.78c-1.8,2.26-3.1,4.72-3.9,7.38c-0.8,2.66-1.2,4.98-1.2,6.98v51.06h-32.8V86.46h31.6v14.4h0.4
		c2.53-5.1,6.13-9.26,10.8-12.48c4.67-3.22,10.07-4.83,16.2-4.83c1.33,0,2.63,0.07,3.9,0.2c1.27,0.13,2.3,0.33,3.1,0.6
		L653.85,113.34z"/>
	<path class="st1" d="M668.85,185.94V34.74h33.4v151.2H668.85z"/>
</g>
</svg>
